<?xml version="1.0" encoding="utf-8"?>
<!DOCTYPE svg PUBLIC "-//W3C//DTD SVG 1.1//EN" "http://www.w3.org/Graphics/SVG/1.1/DTD/svg11.dtd">
<svg xmlns="http://www.w3.org/2000/svg" viewBox="0 0 50 50">
    <path d="M 28.25 3 C 24.304 3 21.52675 5.9357969 19.59375 9.0917969 C 17.896791 11.861754 16.704915 14.88138 15.779297 18 L 10 18 L 9 20 L 15.220703 20 C 14.711601 21.964316 14.283698 23.954055 13.900391 25.939453 C 13.182391 29.659453 12.573781 33.404891 11.675781 37.087891 C 11.053781 39.639891 10.248875 44.928312 7.171875 45.820312 C 5.462875 46.316313 4.3498125 45.367391 4.7578125 44.650391 C 5.4158125 44.264391 5.8757031 43.591828 5.9707031 42.798828 C 6.0027031 42.683828 6.021 42.578 6 42.5 C 6 41.119 4.881 40 3.5 40 C 2.12 40 1 41.119 1 42.5 C 1 42.5 0.89 47 5.75 47 C 12.284 47 15.248687 39.800719 16.804688 34.511719 C 18.202108 29.761066 18.926354 24.844521 19.953125 20 L 26 20 L 27 18 L 20.398438 18 C 20.941859 15.687351 21.582505 13.394929 22.433594 11.175781 C 23.196594 9.1857812 24.518078 4.8506875 26.830078 4.1796875 C 28.539078 3.6836875 29.652141 4.6335625 29.244141 5.3515625 C 28.582141 5.7395625 28.120297 6.4177969 28.029297 7.2167969 C 27.997297 7.3257969 27.981 7.427 28 7.5 C 28 8.881 29.119 10 30.5 10 C 31.881 10 33 8.881 33 7.5 C 33 7.5 33.11 3 28.25 3 z M 34.544922 18 C 31.631922 18 29.386 21.310234 28 24.490234 L 29.994141 24.789062 C 30.682141 22.929063 31.811578 21 33.267578 21 C 34.843578 21 35.361703 22.410938 35.720703 24.210938 L 36.480469 28 L 36.470703 28 C 36.500555 28.130265 36.5773 28.461596 36.611328 28.609375 L 31.328125 34.515625 C 30.974125 34.198625 30.512 34 30 34 C 28.895 34 28 34.895 28 36 C 28 37.105 28.895 38 30 38 C 30.617 38 31.162297 37.715391 31.529297 37.275391 L 31.535156 37.28125 L 37.162109 30.992188 C 37.291838 31.551135 37.346266 31.786186 37.509766 32.490234 C 38.239766 35.590234 39.279453 38 42.439453 38 C 45.359453 38 47.61 34.689766 49 31.509766 L 47 31.210938 C 46.31 33.070937 45.180703 35 43.720703 35 C 42.140703 35 41.619766 33.589063 41.259766 31.789062 L 40.5 28 C 40.471428 27.874755 40.397691 27.555478 40.365234 27.414062 L 45.669922 21.484375 C 46.023922 21.801375 46.487 22 47 22 C 48.105 22 49 21.105 49 20 C 49 18.895 48.105 18 47 18 C 46.399 18 45.867 18.270453 45.5 18.689453 L 45.492188 18.683594 L 39.814453 25.03125 C 39.6834 24.465779 39.628588 24.224739 39.462891 23.509766 C 38.734891 20.409766 37.696922 18 34.544922 18 z"></path>
</svg>